<svg xmlns="http://www.w3.org/2000/svg" width="671" height="618" viewBox="0 0 671 618" fill="none">
  <path opacity="0.05" d="M-83.9121 567.869C-27.9433 528.185 -6.7814 475.86 -20.4263 410.896C-40.8936 313.449 -18.503 251.242 43.1875 246.178C104.878 241.115 163.096 311.765 178.681 396.334C194.266 480.903 280.957 483.243 315.34 466.488C349.724 449.733 369.462 415.948 368.073 379.129C365.001 297.7 253.327 232.819 255.94 157.746C258.553 82.6743 350.376 55.1036 407.979 122.715C410.817 126.046 413.708 129.181 416.644 132.126C475.674 191.34 553.026 173.844 588.396 129.923C649.731 53.7617 621.761 -27.6337 523.35 -82.8623C375.196 -169.904 296.342 -265.311 286.789 -369.083" stroke="url(#paint0_linear_2_82)" stroke-width="100" stroke-linecap="round"/>
  <defs>
    <linearGradient id="paint0_linear_2_82" x1="-83.9121" y1="567.869" x2="604.432" y2="-364.791" gradientUnits="userSpaceOnUse">
      <stop stop-color="#4E7577"/>
      <stop offset="1" stop-color="#65D5FC"/>
      <stop offset="1" stop-color="#23445B"/>
    </linearGradient>
  </defs>
</svg>